# File produced by Open Asset Import Library (http://www.assimp.sf.net)
# (assimp v3.1.187496374)

mtllib Body6.obj.mtl

# 6 vertex positions
v  0 5 -15
v  0 0 -15
v  5 5 -15
v  5 0 -15
v  0 3 -16.5
v  5 3 -16.5

# 0 UV coordinates

# 5 vertex normals
vn 0 0 1
vn 0 0.6 -0.8
vn 0 -0.447214 -0.894427
vn -1 0 0
vn 1 0 0

# Mesh '<STL_BINARY>' with 8 faces
g <STL_BINARY>
usemtl DefaultMaterial
f  1//1 2//1 3//1
f  3//1 2//1 4//1
f  5//2 1//2 6//2
f  6//2 1//2 3//2
f  2//3 5//3 4//3
f  4//3 5//3 6//3
f  5//4 2//4 1//4
f  4//5 6//5 3//5

