# File produced by Open Asset Import Library (http://www.assimp.sf.net)
# (assimp v3.1.187496374)

mtllib Body3.obj.mtl

# 10 vertex positions
v  0 0 -20
v  0 0 -25
v  5 0 -20
v  5 0 -25
v  0 1.5 -22
v  5 1.5 -22
v  0 1.16667 -24
v  5 1.16667 -24
v  0 1.5 -25
v  5 1.5 -25

# 0 UV coordinates

# 7 vertex normals
vn 0 -1 0
vn 0 0.8 0.6
vn 0 0.986394 -0.164399
vn 0 0.948683 0.316228
vn 0 0 -1
vn -1 0 0
vn 1 0 0

# Mesh '<STL_BINARY>' with 16 faces
g <STL_BINARY>
usemtl DefaultMaterial
f  1//1 2//1 3//1
f  3//1 2//1 4//1
f  5//2 1//2 6//2
f  6//2 1//2 3//2
f  7//3 5//3 8//3
f  8//3 5//3 6//3
f  9//4 7//4 10//4
f  10//4 7//4 8//4
f  2//5 9//5 4//5
f  4//5 9//5 10//5
f  9//6 2//6 7//6
f  7//6 2//6 1//6
f  7//6 1//6 5//6
f  10//7 8//7 4//7
f  4//7 8//7 3//7
f  3//7 8//7 6//7

