<?xml version="1.0" encoding="UTF-8" standalone="no"?>
<!-- Created with Inkscape (http://www.inkscape.org/) -->

<svg
   xmlns:dc="http://purl.org/dc/elements/1.1/"
   xmlns:cc="http://creativecommons.org/ns#"
   xmlns:rdf="http://www.w3.org/1999/02/22-rdf-syntax-ns#"
   xmlns:svg="http://www.w3.org/2000/svg"
   xmlns="http://www.w3.org/2000/svg"
   xmlns:sodipodi="http://sodipodi.sourceforge.net/DTD/sodipodi-0.dtd"
   xmlns:inkscape="http://www.inkscape.org/namespaces/inkscape"
   width="210mm"
   height="297mm"
   viewBox="0 0 210 297"
   version="1.1"
   id="svg8"
   inkscape:version="0.92.3 (2405546, 2018-03-11)"
   sodipodi:docname="Stickman.svg">
  <defs
     id="defs2" />
  <sodipodi:namedview
     id="base"
     pagecolor="#ffffff"
     bordercolor="#666666"
     borderopacity="1.0"
     inkscape:pageopacity="0.0"
     inkscape:pageshadow="2"
     inkscape:zoom="0.98994949"
     inkscape:cx="-403.91962"
     inkscape:cy="396.22454"
     inkscape:document-units="mm"
     inkscape:current-layer="layer1"
     showgrid="false"
     inkscape:window-width="1920"
     inkscape:window-height="1017"
     inkscape:window-x="-8"
     inkscape:window-y="-8"
     inkscape:window-maximized="1" />
  <metadata
     id="metadata5">
    <rdf:RDF>
      <cc:Work
         rdf:about="">
        <dc:format>image/svg+xml</dc:format>
        <dc:type
           rdf:resource="http://purl.org/dc/dcmitype/StillImage" />
        <dc:title />
      </cc:Work>
    </rdf:RDF>
  </metadata>
  <g
     inkscape:label="Layer 1"
     inkscape:groupmode="layer"
     id="layer1">
    <path
       style="fill:#030303;fill-opacity:1;stroke:none;stroke-width:4.71168756;stroke-linejoin:round;stroke-miterlimit:4;stroke-dasharray:none;stroke-opacity:1"
       d="m 36.663692,117.08333 c 2.303389,0 4.157742,1.81782 4.157742,4.07584 v 75.75903 c 0,2.25802 -1.854353,4.07584 -4.157742,4.07584 -2.303388,0 -4.157741,-1.81782 -4.157741,-4.07584 v -75.75903 c 0,-2.25802 1.854353,-4.07584 4.157741,-4.07584 z"
       id="rect815" />
    <path
       transform="rotate(24.580582)"
       style="fill:#030303;fill-opacity:1;stroke:none;stroke-width:4.1778636;stroke-linejoin:round;stroke-miterlimit:4;stroke-dasharray:none;stroke-opacity:1"
       d="m 115.61601,161.99004 c 2.51279,0 4.7051,2.94817 4.53572,6.60147 l -2.21957,47.87288 c -0.16938,3.65329 -3.24726,3.82998 -3.24726,3.82998 0,0 -1.10386,0.44565 -1.27904,-3.20736 l -2.32557,-48.4955 c -0.17518,-3.65302 2.02293,-6.60147 4.53572,-6.60147 z"
       id="rect815-8"
       inkscape:connector-curvature="0"
       sodipodi:nodetypes="ssscsss" />
    <path
       style="fill:#030303;fill-opacity:1;stroke:none;stroke-width:4.1778636;stroke-linejoin:round;stroke-miterlimit:4;stroke-dasharray:none;stroke-opacity:1"
       d="m 14.238668,244.36198 c 0,0 1.797176,-0.15371 2.221082,3.47886 l 5.631434,48.25738 c 0.423905,3.63256 -1.420793,6.7567 -3.92339,6.98278 -2.502597,0.22607 -5.051106,-2.5099 -5.111257,-6.16662 l -0.805522,-48.96943 c -0.06015,-3.65674 1.987653,-3.58297 1.987653,-3.58297 z"
       id="rect815-8-7"
       inkscape:connector-curvature="0"
       sodipodi:nodetypes="csssssc" />
    <path
       style="fill:#030303;fill-opacity:1;stroke:none;stroke-width:4.76217985;stroke-linejoin:round;stroke-miterlimit:4;stroke-dasharray:none;stroke-opacity:1"
       d="M 57.412245,100.64137 A 20.579634,20.221725 0 0 1 36.832611,120.8631 20.579634,20.221725 0 0 1 16.252977,100.64137 20.579634,20.221725 0 0 1 36.832611,80.419647 20.579634,20.221725 0 0 1 57.412245,100.64137 Z"
       id="path865" />
    <path
       style="fill:#030303;fill-opacity:1;stroke:none;stroke-width:4.1778636;stroke-linejoin:round;stroke-miterlimit:4;stroke-dasharray:none;stroke-opacity:1"
       d="m 37.755135,195.40313 c 2.508666,0.1439 4.528549,3.21277 4.150239,6.85038 l -4.957412,47.66721 c -0.378312,3.63759 -3.461261,3.63773 -3.461261,3.63773 0,0 -1.127564,0.38172 -1.093267,-3.27533 l 0.455385,-48.54909 c 0.0343,-3.65707 2.397647,-6.4748 4.906316,-6.3309 z"
       id="rect815-8-8"
       inkscape:connector-curvature="0"
       sodipodi:nodetypes="ssscsss" />
    <path
       style="fill:#030303;fill-opacity:1;stroke:none;stroke-width:4.1778636;stroke-linejoin:round;stroke-miterlimit:4;stroke-dasharray:none;stroke-opacity:1"
       d="m 33.627227,249.55987 c 0,0 1.61861,-0.79597 3.332965,2.43455 l 22.774586,42.91628 c 1.71435,3.23051 1.130365,6.81131 -1.119204,7.93092 -2.249573,1.11961 -5.617776,-0.50385 -7.001989,-3.88899 L 33.076703,253.62009 c -1.38422,-3.38516 0.550524,-4.06022 0.550524,-4.06022 z"
       id="rect815-8-7-4"
       inkscape:connector-curvature="0"
       sodipodi:nodetypes="csssssc" />
    <path
       style="fill:#030303;fill-opacity:1;stroke:none;stroke-width:4.04036522;stroke-linejoin:round;stroke-miterlimit:4;stroke-dasharray:none;stroke-opacity:1"
       d="m 40.090197,122.58815 c -1.286683,-2.01864 -4.941605,-2.36792 -7.992887,-0.48228 l -39.9840227,24.70962 c -3.0512723,1.88564 -1.626994,4.44287 -1.626994,4.44287 0,0 0.182432,1.1002 3.4099042,-0.50852 L 36.74238,129.39337 c 3.227471,-1.60872 4.6345,-4.78659 3.347817,-6.80522 z"
       id="rect815-8-5"
       inkscape:connector-curvature="0"
       sodipodi:nodetypes="ssscsss" />
    <path
       style="fill:#030303;fill-opacity:1;stroke:none;stroke-width:4.04036522;stroke-linejoin:round;stroke-miterlimit:4;stroke-dasharray:none;stroke-opacity:1"
       d="m -6.0324255,149.41396 c 0,0 -0.04192,-1.68652 -3.6990322,-1.71254 l -48.5834463,-0.34568 c -3.657104,-0.026 -6.56298,2.00568 -6.516573,4.35538 0.04642,2.34972 3.042409,4.44197 6.684118,4.12734 l 48.7684183,-4.2134 c 3.6417302,-0.31463 3.3465152,-2.2111 3.3465152,-2.2111 z"
       id="rect815-8-7-6"
       inkscape:connector-curvature="0"
       sodipodi:nodetypes="csssssc" />
    <path
       style="fill:#030303;fill-opacity:1;stroke:none;stroke-width:4.04036522;stroke-linejoin:round;stroke-miterlimit:4;stroke-dasharray:none;stroke-opacity:1"
       d="m 36.663692,117.08333 c -2.334537,0.52952 -3.897392,3.85186 -3.152762,7.36063 l 9.757811,45.97904 c 0.744633,3.50877 3.63259,3.03158 3.63259,3.03158 0,0 1.097186,0.19977 0.672703,-3.38134 l -5.635175,-47.54092 c -0.424483,-3.58111 -2.940636,-5.97852 -5.275167,-5.44899 z"
       id="rect815-8-5-3"
       inkscape:connector-curvature="0"
       sodipodi:nodetypes="ssscsss" />
    <path
       style="fill:#030303;fill-opacity:1;stroke:none;stroke-width:4.04036522;stroke-linejoin:round;stroke-miterlimit:4;stroke-dasharray:none;stroke-opacity:1"
       d="m 46.340708,169.55499 c 0,0 -1.601627,-0.53 -2.860946,2.90355 l -16.72963,45.61349 c -1.259298,3.43355 -0.328108,6.85476 1.899267,7.60446 2.227398,0.74969 5.208371,-1.3639 6.141846,-4.89797 l 12.500754,-47.32697 c 0.933482,-3.53409 -0.951291,-3.89656 -0.951291,-3.89656 z"
       id="rect815-8-7-6-1"
       inkscape:connector-curvature="0"
       sodipodi:nodetypes="csssssc" />
    <path
       style="fill:#ffffff;fill-opacity:1;stroke:#ffffff;stroke-width:5.29166667;stroke-linejoin:round;stroke-miterlimit:4;stroke-dasharray:none;stroke-opacity:1"
       d="m -34.957365,176.36393 c 0,0 1.803407,-0.0346 1.986211,3.61809 l 2.428483,48.52412 c 0.182804,3.65264 -1.864417,6.64798 -4.376485,6.7081 -2.512068,0.0601 -4.874107,-2.83837 -4.692355,-6.49106 l 2.433948,-48.91554 c 0.181754,-3.65272 2.220198,-3.44371 2.220198,-3.44371 z"
       id="rect815-8-7-7"
       inkscape:connector-curvature="0"
       sodipodi:nodetypes="csssssc"
       inkscape:export-xdpi="400.05972"
       inkscape:export-ydpi="400.05972" />
    <path
       style="fill:#ffffff;fill-opacity:1;stroke:#ffffff;stroke-width:5.29166667;stroke-linejoin:round;stroke-miterlimit:4;stroke-dasharray:none;stroke-opacity:1"
       d="m -53.38525,175.26261 c 2.512763,0.0114 4.691662,2.9695 4.505695,6.622 l -2.436952,47.8623 c -0.18597,3.65248 -3.264622,3.81519 -3.264622,3.81519 0,0 -1.105867,0.44064 -1.264459,-3.21313 l -2.105315,-48.50556 c -0.158591,-3.65378 2.052886,-6.59222 4.565653,-6.5808 z"
       id="rect815-8-70"
       inkscape:connector-curvature="0"
       sodipodi:nodetypes="ssscsss"
       inkscape:export-xdpi="400.05972"
       inkscape:export-ydpi="400.05972" />
    <path
       inkscape:connector-curvature="0"
       style="fill:#ffffff;fill-opacity:1;stroke:#ffffff;stroke-width:4.13487768;stroke-linejoin:round;stroke-miterlimit:4;stroke-dasharray:none;stroke-opacity:1"
       d="m -72.964582,170.27635 c 2.62382,0 4.736136,0.97437 4.736136,2.1847 v 40.60767 c 0,1.21033 -2.112316,2.1847 -4.736136,2.1847 -2.623819,0 -4.736135,-0.97437 -4.736135,-2.1847 v -40.60767 c 0,-1.21033 2.112316,-2.1847 4.736135,-2.1847 z"
       id="rect815-4"
       inkscape:export-xdpi="400.05972"
       inkscape:export-ydpi="400.05972" />
    <path
       inkscape:connector-curvature="0"
       style="fill:#ffffff;fill-opacity:1;stroke:#ffffff;stroke-width:6.4648118;stroke-linejoin:round;stroke-miterlimit:4;stroke-dasharray:none;stroke-opacity:1"
       d="m -90.121988,189.01466 a 25.142073,24.704817 0 0 1 -25.142062,24.70482 25.142073,24.704817 0 0 1 -25.14207,-24.70482 25.142073,24.704817 0 0 1 25.14207,-24.70483 25.142073,24.704817 0 0 1 25.142062,24.70483 z"
       id="path865-0"
       inkscape:export-xdpi="400.05972"
       inkscape:export-ydpi="400.05972" />
  </g>
</svg>
